<svg id="Layer_1" data-name="Layer 1" xmlns="http://www.w3.org/2000/svg" xmlns:xlink="http://www.w3.org/1999/xlink" viewBox="0 0 580 355" width="280px" height="172px" preserveAspectRatio="none"><defs><style>.cls-1{fill:#fff;}.cls-2{fill:#3c3c3b;}.cls-3{fill:url(#linear-gradient);}.cls-4{fill:url(#linear-gradient-2);}.cls-5{fill:#010101;}</style><linearGradient id="linear-gradient" x1="129.95" y1="27.25" x2="129.95" y2="101.42" gradientUnits="userSpaceOnUse"><stop offset="0.04" stop-color="#3c61aa"/><stop offset="0.06" stop-color="#3878bb"/><stop offset="0.1" stop-color="#3590cc"/><stop offset="0.14" stop-color="#32a1d8"/><stop offset="0.18" stop-color="#31abe0"/><stop offset="0.23" stop-color="#30aee2"/><stop offset="0.37" stop-color="#3399d3"/><stop offset="0.61" stop-color="#387abc"/><stop offset="0.81" stop-color="#3b68af"/><stop offset="0.96" stop-color="#3c61aa"/></linearGradient><linearGradient id="linear-gradient-2" x1="129.95" y1="182.1" x2="129.95" y2="108.64" gradientUnits="userSpaceOnUse"><stop offset="0.09" stop-color="#e94b4d"/><stop offset="0.13" stop-color="#dc4344"/><stop offset="0.2" stop-color="#cc393a"/><stop offset="0.28" stop-color="#c33334"/><stop offset="0.4" stop-color="#c03132"/><stop offset="0.62" stop-color="#d6373b"/><stop offset="0.84" stop-color="#e83b42"/><stop offset="0.88" stop-color="#e33a41"/><stop offset="0.92" stop-color="#d6383d"/><stop offset="0.97" stop-color="#c03336"/><stop offset="1" stop-color="#a92f2f"/></linearGradient></defs><path class="cls-1" d="M79.81,101.79h5.48a10.55,10.55,0,0,0,9.89-6.87v0l12.54-33.65V42.72A11.63,11.63,0,0,0,96.1,31.1h-45v.37a11.63,11.63,0,0,1,8.69,11.25v124.9a11.62,11.62,0,0,1-8.69,11.25v.37h45a11.63,11.63,0,0,0,11.63-11.62V149.17L95.14,115.43a10.48,10.48,0,0,0-9.85-6.88H79.81a3.38,3.38,0,0,1-3.38-3.38A3.38,3.38,0,0,1,79.81,101.79Z"/><path class="cls-2" d="M96.1,179.7h-45a.47.47,0,0,1-.46-.46v-.37a.45.45,0,0,1,.34-.44,11.17,11.17,0,0,0,8.36-10.81V42.72A11.18,11.18,0,0,0,51,31.91a.45.45,0,0,1-.34-.44V31.1a.47.47,0,0,1,.46-.46h45a12.09,12.09,0,0,1,12.08,12.08V61.23a.4.4,0,0,1,0,.15L95.62,95a11.06,11.06,0,0,1-10.33,7.2H79.81a2.94,2.94,0,0,0-2.93,2.93,2.94,2.94,0,0,0,2.93,2.93h5.48a11,11,0,0,1,10.28,7.18L108.15,149a.41.41,0,0,1,0,.16v18.45A12.09,12.09,0,0,1,96.1,179.7Zm-45-.83Zm1.68-.08H96.1a11.18,11.18,0,0,0,11.17-11.17V149.25L94.71,115.59A10.05,10.05,0,0,0,85.29,109H79.81A3.86,3.86,0,0,1,76,105.17a3.85,3.85,0,0,1,3.84-3.84h5.48a10.13,10.13,0,0,0,9.46-6.57l12.52-33.62V42.72A11.18,11.18,0,0,0,96.1,31.55H52.78a12.09,12.09,0,0,1,7.47,11.17v124.9A12.09,12.09,0,0,1,52.78,178.79Z"/><path class="cls-3" d="M127.57,31.1a12.4,12.4,0,0,0-11.63,8.08l-8.21,22L95.19,94.88v0a10.55,10.55,0,0,1-9.89,6.87h51.37a11.24,11.24,0,0,0,10.51-7.3L168.26,38a10.38,10.38,0,0,1,6.34-6.28v-.6Z"/><path class="cls-2" d="M136.66,102.24H85.29a.45.45,0,0,1-.45-.45.46.46,0,0,1,.45-.46,10.13,10.13,0,0,0,9.46-6.57L115.51,39a12.93,12.93,0,0,1,12.06-8.38h47a.46.46,0,0,1,.45.46v.6a.46.46,0,0,1-.3.43,9.9,9.9,0,0,0-6.06,6L147.6,94.65A11.72,11.72,0,0,1,136.66,102.24Zm-47-.91h47a10.81,10.81,0,0,0,10.09-7l21.08-56.51a10.86,10.86,0,0,1,5.89-6.27H127.57a12,12,0,0,0-11.21,7.79L95.62,95A11.08,11.08,0,0,1,89.66,101.33Z"/><path class="cls-4" d="M168.22,172.38l-20.76-55.74a12.49,12.49,0,0,0-11.63-8.09H85.29a10.48,10.48,0,0,1,9.85,6.88l12.59,33.74,8.5,22.77a11.2,11.2,0,0,0,10.51,7.3H174.6v-.6A10.51,10.51,0,0,1,168.22,172.38Z"/><path class="cls-2" d="M174.6,179.7H126.74a11.72,11.72,0,0,1-10.94-7.6L94.71,115.59A10.05,10.05,0,0,0,85.29,109a.46.46,0,0,1-.45-.46.45.45,0,0,1,.45-.45h50.53a12.93,12.93,0,0,1,12.07,8.38l20.76,55.74h0a10,10,0,0,0,6.1,6,.44.44,0,0,1,.3.43v.6A.46.46,0,0,1,174.6,179.7ZM89.65,109a11,11,0,0,1,5.92,6.27l21.08,56.51a10.82,10.82,0,0,0,10.09,7h47a11,11,0,0,1-6-6.25L147,116.8A12,12,0,0,0,135.82,109Z"/><path class="cls-5" d="M73.25,200V221.8h-5V204.09H58.38V221.8h-5V200Z"/><path class="cls-5" d="M98.46,207.89c0,4.87-3.65,7.89-9.48,7.89h-4.4v6h-5V200H89C94.81,200,98.46,203,98.46,207.89Zm-5.12,0c0-2.4-1.56-3.8-4.64-3.8H84.58v7.58H88.7C91.78,211.67,93.34,210.26,93.34,207.89Z"/><path class="cls-5" d="M102.85,200h5v14.22L118.29,200H123V221.8h-5V207.61L107.62,221.8h-4.77Z"/><path class="cls-5" d="M160.31,200V221.8h-5V204.09h-9.85V221.8h-5V200Z"/><path class="cls-5" d="M165.13,210.89c0-6.49,5.05-11.29,12-11.29S189,204.37,189,210.89s-5.08,11.29-11.94,11.29S165.13,217.37,165.13,210.89Zm18.78,0a6.83,6.83,0,1,0-6.83,7A6.67,6.67,0,0,0,183.91,210.89Z"/><path class="cls-5" d="M216.24,217.69v8.63h-4.68V221.8h-15.4v4.52h-4.68l0-8.63h.87c2.84-.1,3.56-4.78,3.78-10.89l.25-6.83h16.78v17.72Zm-17.81,0h9.77v-13.6h-7.49l-.09,3.18C200.43,211.92,199.93,215.91,198.43,217.69Z"/><path class="cls-5" d="M244.21,217.69v8.63h-4.68V221.8H224.12v4.52h-4.68l0-8.63h.88c2.84-.1,3.55-4.78,3.77-10.89l.25-6.83h16.78v17.72Zm-17.81,0h9.76v-13.6h-7.48l-.1,3.18C228.39,211.92,227.89,215.91,226.4,217.69Z"/><path class="cls-5" d="M265.55,217.75v4.05h-16.9V200h16.5V204H253.67v4.75h10.14v3.93H253.67v5.05Z"/><path class="cls-5" d="M289.68,207.89c0,4.87-3.65,7.89-9.48,7.89h-4.4v6h-5.05V200h9.45C286,200,289.68,203,289.68,207.89Zm-5.12,0c0-2.4-1.56-3.8-4.64-3.8H275.8v7.58h4.12C283,211.67,284.56,210.26,284.56,207.89Z"/><path class="cls-5" d="M313.33,213h-3.18v8.79h-5V213h-3.25l-4.89,8.79h-5.83l6.54-11.41L291.62,200H297l4.9,8.83h3.34V200h5v8.83h3.24l4.93-8.83h5.33l-6.11,10.42,6.52,11.41h-5.84Z"/><path class="cls-5" d="M336.72,213h-3.49v8.79h-5V200h5v8.83h3.62l5.74-8.83h5.33l-7.14,10.54,7.36,11.29H342.4Z"/><path class="cls-5" d="M369.16,217.75v4.05h-16.9V200h16.5V204H357.28v4.75h10.14v3.93H357.28v5.05Z"/><path class="cls-5" d="M73.25,237.41v21.83h-5V241.52H58.38v17.72h-5V237.41Z"/><path class="cls-5" d="M98.46,245.33c0,4.86-3.65,7.89-9.48,7.89h-4.4v6h-5V237.41H89C94.81,237.41,98.46,240.43,98.46,245.33Zm-5.12,0c0-2.4-1.56-3.81-4.64-3.81H84.58v7.58H88.7C91.78,249.1,93.34,247.7,93.34,245.33Z"/><path class="cls-5" d="M119.75,255.18v4.06h-16.9V237.41h16.5v4.05H107.87v4.74H118v3.93H107.87v5.05Z"/><path class="cls-5" d="M141.84,253.12c0,4.12-4.49,6.49-9.74,6.49a17.72,17.72,0,0,1-8.7-2.27l1.56-3.62a13,13,0,0,0,6.55,1.77c2.87,0,5.21-1.06,5.21-3.08,0-1.66-1.5-2.47-3.77-2.47h-5.34v-3.8h5c2.06,0,3.25-.91,3.25-2.34,0-1.78-1.94-2.71-4.4-2.71a12.12,12.12,0,0,0-5.86,1.56L124,238.72a16.45,16.45,0,0,1,7.48-1.78c5.05,0,9.42,2.31,9.42,6.27a5,5,0,0,1-3.15,4.64A5.52,5.52,0,0,1,141.84,253.12Z"/><path class="cls-5" d="M146.81,237.41h5v14.22l10.41-14.22H167v21.83h-5V245.05l-10.41,14.19h-4.78Z"/><path class="cls-5" d="M195.94,255.12v8.64h-4.68v-4.52H175.85v4.52h-4.68l0-8.64h.88c2.84-.09,3.55-4.77,3.77-10.88l.25-6.83h16.78v17.71Zm-17.81,0h9.76v-13.6h-7.48l-.1,3.18C180.12,249.35,179.63,253.34,178.13,255.12Z"/><path class="cls-5" d="M217.28,255.18v4.06h-16.9V237.41h16.5v4.05H205.4v4.74h10.14v3.93H205.4v5.05Z"/><path class="cls-5" d="M242.5,237.41v21.83h-5.05v-9h-9.92v9h-5.05V237.41h5.05V246h9.92v-8.6Z"/><path class="cls-5" d="M265.63,241.52h-7v17.72h-5V241.52h-7v-4.11h18.94Z"/><path class="cls-5" d="M268.07,248.32c0-6.58,5.05-11.29,11.85-11.29a11.26,11.26,0,0,1,9,3.87l-3.24,3a7,7,0,0,0-5.49-2.55,7,7,0,1,0,0,14,7,7,0,0,0,5.49-2.59l3.24,3a11.21,11.21,0,0,1-9,3.9C273.12,259.61,268.07,254.9,268.07,248.32Z"/><path class="cls-5" d="M301.63,250.44h-3.5v8.8h-5V237.41h5v8.82h3.62l5.74-8.82h5.33L305.68,248,313,259.24H307.3Z"/><path class="cls-5" d="M314.59,248.32c0-6.49,5.05-11.29,11.94-11.29s12,4.77,12,11.29-5.09,11.29-12,11.29S314.59,254.81,314.59,248.32Zm18.77,0a6.83,6.83,0,1,0-6.83,7A6.65,6.65,0,0,0,333.36,248.32Z"/><path class="cls-5" d="M358.68,241.52H348.29l0,17.72h-5V237.41h15.41Z"/><path class="cls-5" d="M361.06,248.32c0-6.49,5.05-11.29,11.94-11.29S385,241.8,385,248.32s-5.09,11.29-11.95,11.29S361.06,254.81,361.06,248.32Zm18.77,0a6.83,6.83,0,1,0-6.83,7A6.65,6.65,0,0,0,379.83,248.32Z"/><path class="cls-5" d="M415.24,257.83v2.37h-4.65v-2.4c-7.39-.43-11.44-3.83-11.44-9.54s4.05-9.11,11.44-9.54v-2.25h4.65v2.21c7.36.44,11.41,3.87,11.41,9.58S422.63,257.46,415.24,257.83Zm-4.65-4V242.68c-4.43.4-6.55,2.18-6.55,5.58S406.38,253.44,410.59,253.87Zm11.2-5.64c0-3.37-2.22-5.18-6.55-5.55v11.19C419.64,253.47,421.79,251.63,421.79,248.23Z"/><path class="cls-5" d="M430.4,248.32c0-6.49,5.05-11.29,11.94-11.29s12,4.77,12,11.29-5.09,11.29-12,11.29S430.4,254.81,430.4,248.32Zm18.77,0a6.83,6.83,0,1,0-6.83,7A6.65,6.65,0,0,0,449.17,248.32Z"/><path class="cls-5" d="M479.14,237.41v21.83h-5.06v-9h-9.91v9h-5.06V237.41h5.06V246h9.91v-8.6Z"/><path class="cls-5" d="M508.1,255.12v8.64h-4.68v-4.52H488v4.52h-4.68l0-8.64h.87c2.84-.09,3.56-4.77,3.78-10.88l.25-6.83H505v17.71Zm-17.81,0h9.76v-13.6h-7.49l-.09,3.18C492.28,249.35,491.78,253.34,490.29,255.12Z"/><path class="cls-5" d="M528.44,254.56H518.3l-1.93,4.68h-5.18l9.73-21.83h5l9.76,21.83h-5.3Zm-1.59-3.84-3.47-8.35-3.46,8.35Z"/><path class="cls-5" d="M61.81,287.88h-3.5v8.79h-5V274.84h5v8.83h3.62l5.74-8.83H73l-7.14,10.54,7.36,11.29H67.48Z"/><path class="cls-5" d="M98.19,274.84,88.9,292.12c-1.81,3.37-4.4,5.05-7.33,5.05a9.28,9.28,0,0,1-3.55-.75l1.21-3.83a7.55,7.55,0,0,0,2.19.4,3.45,3.45,0,0,0,3-1.87l.19-.25-8.61-16h5.4l5.8,11.73,6-11.73Z"/><path class="cls-5" d="M120.3,274.84v21.83h-5V279h-7.48l-.16,4.55c-.28,8.58-1.49,13.51-6.61,13.51a11.08,11.08,0,0,1-2.5-.35l.32-4.27a3.11,3.11,0,0,0,.9.13c2.56,0,3.21-3.25,3.43-8.83l.31-8.86Z"/><path class="cls-5" d="M145.43,289.06c0,5-3.37,7.61-9,7.61h-9.86V274.84h5V282h5.55C142.43,282,145.43,284.35,145.43,289.06Zm-5.08.1c0-2.41-1.56-3.4-4.18-3.4h-4.56v7.17h4.56C138.75,292.93,140.35,291.62,140.35,289.16Z"/><path class="cls-5" d="M164.8,279h-7v17.71h-5V279h-7v-4.12H164.8Z"/><path class="cls-5" d="M189.93,274.84l-9.29,17.28c-1.81,3.37-4.4,5.05-7.33,5.05a9.33,9.33,0,0,1-3.56-.75l1.22-3.83a7.55,7.55,0,0,0,2.18.4,3.46,3.46,0,0,0,3.06-1.87l.19-.25-8.61-16h5.39L179,286.57l6-11.73Z"/><path class="cls-5" d="M212.89,282.76c0,4.87-3.65,7.89-9.48,7.89H199v6h-5V274.84h9.45C209.24,274.84,212.89,277.87,212.89,282.76Zm-5.11,0c0-2.4-1.56-3.8-4.65-3.8H199v7.58h4.12C206.22,286.54,207.78,285.13,207.78,282.76Z"/><path class="cls-5" d="M237.31,274.84v21.83h-5.06v-8.95h-9.91v8.95h-5.06V274.84h5.06v8.61h9.91v-8.61Z"/><path class="cls-5" d="M262.43,289.06c0,5-3.37,7.61-9,7.61h-9.86V274.84h5V282h5.55C259.44,282,262.43,284.35,262.43,289.06Zm-5.08.1c0-2.41-1.56-3.4-4.18-3.4h-4.55v7.17h4.55C255.76,292.93,257.35,291.62,257.35,289.16Zm7.86-14.32h5v21.83h-5Z"/><path class="cls-5" d="M280.68,274.84l4.52,6.61,4.53-6.61h5.92l-7.26,10.45,7.86,11.38h-6l-5.09-7.23-5,7.23h-5.83l7.8-11.16-7.3-10.67Z"/><path class="cls-5" d="M311.22,274.84h5v14.22l10.42-14.22h4.74v21.83h-5V282.48L316,296.67h-4.78Z"/><path class="cls-5" d="M357.7,274.84v21.83h-5.06v-8.95h-9.91v8.95h-5.06V274.84h5.06v8.61h9.91v-8.61Z"/><path class="cls-5" d="M364,274.84h5v14.22l10.41-14.22h4.74v21.83h-5V282.48l-10.41,14.19H364Z"/><path class="cls-5" d="M413.33,292.56v8.73h-4.65v-4.62H390.44V274.84h5v17.72h9.73V274.84h5v17.72Z"/><path class="cls-5" d="M417.74,274.84h5v14.22l10.42-14.22h4.74v21.83h-5V282.48l-10.42,14.19h-4.77Z"/><path class="cls-5" d="M459.24,292H449.1l-1.93,4.68H442l9.73-21.83h5l9.76,21.83h-5.3Zm-1.59-3.83-3.46-8.36-3.46,8.36Z"/><path class="cls-5" d="M484.76,279h-7v17.71h-5V279h-6.95v-4.12h18.93Z"/><path class="cls-5" d="M488.92,274.84h5v14.22l10.42-14.22h4.74v21.83h-5V282.48l-10.42,14.19h-4.77Z"/><path class="cls-5" d="M534.62,290.53c0,3.8-3,6.14-8.49,6.14H515.37V274.84h10.17c5.05,0,8.05,2,8.05,5.65a5.14,5.14,0,0,1-3.09,4.8A5.18,5.18,0,0,1,534.62,290.53Zm-14.23-6.64h4.71c2.19,0,3.34-.91,3.34-2.66s-1.15-2.65-3.34-2.65h-4.71Zm9.11,6.23c0-1.84-1.22-2.71-3.55-2.71h-5.56v5.52H526C528.28,292.93,529.5,292,529.5,290.12Z"/></svg>