<svg width="72" height="16" viewBox="0 0 72 16" fill="none" xmlns="http://www.w3.org/2000/svg">
<path d="M7.22949 0.595703L2.32031 0.595703L0.408203 2.00293L2.32031 3.41016H3.67383L3.67383 16H7.22949L7.22949 0.595703ZM21.6068 16C26.7917 16 29.3591 13.4613 29.309 8.38379C29.2589 3.19173 26.6915 0.595703 21.6068 0.595703L16.0102 0.595703C12.2432 0.595703 10.3347 2.27865 10.2846 5.64453C10.2344 8.89583 12.143 10.5215 16.0102 10.5215H25.4418C24.8617 12.2975 23.4258 13.1855 21.1342 13.1855H12.7875L10.8754 14.5928L12.7875 16H21.6068ZM16.4828 7.70703C14.807 7.70703 13.9691 7.01953 13.9691 5.64453C13.9691 4.15495 14.807 3.41016 16.4828 3.41016L21.1342 3.41016C23.9916 3.41016 25.5206 4.84245 25.7211 7.70703L16.4828 7.70703ZM42.8807 16C48.0656 16 50.6329 13.4613 50.5828 8.38379C50.5327 3.19173 47.9653 0.595703 42.8807 0.595703L37.284 0.595703C33.5171 0.595703 31.6085 2.27865 31.5584 5.64453C31.5083 8.89583 33.4168 10.5215 37.284 10.5215H46.7156C46.1355 12.2975 44.6997 13.1855 42.408 13.1855H34.0613L32.1492 14.5928L34.0613 16H42.8807ZM37.7566 7.70703C36.0809 7.70703 35.243 7.01953 35.243 5.64453C35.243 4.15495 36.0809 3.41016 37.7566 3.41016L42.408 3.41016C45.2654 3.41016 46.7944 4.84245 46.9949 7.70703L37.7566 7.70703ZM56.968 3.41016L70.8898 3.41016V0.595703L53.423 0.595703V9.62988L65.6584 9.62988C67.3342 9.62988 68.1721 10.1956 68.1721 11.3271C68.1721 12.5661 67.3342 13.1855 65.6584 13.1855L54.8518 13.1855L52.9289 14.5928L54.8518 16L66.1311 16C69.898 16 71.8065 14.4424 71.8566 11.3271C71.9068 8.31934 69.9982 6.81543 66.1311 6.81543L56.968 6.81543V3.41016Z" fill="white" fill-opacity="0.9"/>
</svg>
