<svg width="73" height="16" viewBox="0 0 73 16" fill="none" xmlns="http://www.w3.org/2000/svg">
<path d="M7.22949 0.595703L2.32031 0.595703L0.408203 2.00293L2.32031 3.41016H3.67383L3.67383 16H7.22949L7.22949 0.595703ZM21.6068 16C26.7917 16 29.3591 13.4613 29.309 8.38379C29.2589 3.19173 26.6915 0.595703 21.6068 0.595703L16.0102 0.595703C12.2432 0.595703 10.3347 2.27865 10.2846 5.64453C10.2344 8.89583 12.143 10.5215 16.0102 10.5215H25.4418C24.8617 12.2975 23.4258 13.1855 21.1342 13.1855H12.7875L10.8754 14.5928L12.7875 16H21.6068ZM16.4828 7.70703C14.807 7.70703 13.9691 7.01953 13.9691 5.64453C13.9691 4.15495 14.807 3.41016 16.4828 3.41016L21.1342 3.41016C23.9916 3.41016 25.5206 4.84245 25.7211 7.70703L16.4828 7.70703ZM39.2605 0.595703C34.0757 0.595703 31.5083 3.13444 31.5584 8.21191C31.6085 13.404 34.1759 16 39.2605 16H44.8572C48.6242 16 50.5327 14.3171 50.5828 10.9512C50.6329 7.69987 48.7244 6.07422 44.8572 6.07422L35.4256 6.07422C36.0057 4.29818 37.4415 3.41016 39.7332 3.41016H48.0799L49.992 2.00293L48.0799 0.595703H39.2605ZM44.3846 8.88867C46.0604 8.88867 46.8982 9.57617 46.8982 10.9512C46.8982 12.4408 46.0604 13.1855 44.3846 13.1855H39.7332C36.8758 13.1855 35.3468 11.7533 35.1463 8.88867H44.3846ZM65.0354 3.41016C67.2268 3.41016 68.3225 3.97233 68.3225 5.09668C68.3225 6.29264 67.2268 6.89062 65.0354 6.89062L59.9221 6.89062C55.6395 6.89062 53.4732 8.42676 53.423 11.499L53.423 16L69.9445 16L71.8566 14.5928L69.9445 13.1855H57.1076V11.499C57.1076 10.3031 58.2033 9.70508 60.3947 9.70508H65.508C69.7906 9.70508 71.9569 8.16895 72.007 5.09668C72.0572 2.09603 69.8908 0.595703 65.508 0.595703L55.4855 0.595703L53.5734 2.00293L55.4855 3.41016L65.0354 3.41016Z" fill="white" fill-opacity="0.9"/>
</svg>
