<svg width="195" height="21" viewBox="0 0 195 21" fill="none" xmlns="http://www.w3.org/2000/svg">
<path d="M0.614258 21H6.08008L20.7217 6.55664V21H25.4087V0.694336H19.9429L5.30127 15.1377L5.30127 0.694336L0.614258 0.694336L0.614258 21ZM39.9568 17.29C35.907 17.29 33.8821 15.1047 33.8821 10.7339C33.8821 6.51416 35.907 4.4043 39.9568 4.4043L50.9593 4.4043L53.4798 2.54932L50.9593 0.694336L39.3338 0.694336C32.4992 0.694336 29.1149 4.04085 29.181 10.7339C29.247 17.578 32.6313 21 39.3338 21H50.9593L53.4798 19.145L50.9593 17.29H39.9568ZM55.9918 4.4043L65.9464 4.4043V21H70.4352V4.4043L80.3897 4.4043V0.694336L55.9918 0.694336V4.4043ZM93.1254 0.694336C86.2908 0.694336 82.9065 4.04085 82.9726 10.7339C83.0386 17.578 86.4229 21 93.1254 21L98.8178 21C105.52 21 108.905 17.578 108.971 10.7339C109.037 4.04085 105.652 0.694336 98.8178 0.694336H93.1254ZM98.1947 4.4043C102.254 4.4043 104.284 6.51416 104.284 10.7339C104.284 15.1047 102.254 17.29 98.1947 17.29H93.7484C89.6892 17.29 87.6596 15.1047 87.6596 10.7339C87.6596 6.51416 89.6892 4.4043 93.7484 4.4043H98.1947ZM137.169 7.12305C137.235 2.83724 134.719 0.694336 129.622 0.694336L112.87 0.694336V21H117.571V13.7783L129.622 13.7783C134.587 13.7783 137.103 11.5599 137.169 7.12305ZM117.571 10.0684V4.4043L129.169 4.4043C131.378 4.4043 132.482 5.31055 132.482 7.12305C132.482 9.08659 131.378 10.0684 129.169 10.0684L117.571 10.0684ZM141.281 21L146.747 21L161.389 6.55664V21L166.076 21V0.694336H160.61L145.968 15.1377V0.694336H141.281V21ZM175.3 21L179.661 13.7783L189.757 13.7783V21H194.458V0.694336L177.707 0.694336C172.609 0.694336 170.093 2.83724 170.159 7.12305C170.207 10.5309 171.703 12.6313 174.648 13.4243L170.06 21H175.3ZM189.757 10.0684L178.16 10.0684C175.951 10.0684 174.846 9.08659 174.846 7.12305C174.846 5.31055 175.951 4.4043 178.16 4.4043L189.757 4.4043V10.0684Z" fill="white" fill-opacity="0.9"/>
</svg>
