<svg width="835" height="109" viewBox="0 0 835 109" fill="none" xmlns="http://www.w3.org/2000/svg">
<path d="M11.498 15.4492C7.51432 15.4209 5.52246 13.8822 5.52246 10.833C5.52246 7.79329 7.51432 6.25928 11.498 6.23096V15.4492ZM16.1851 6.23096C20.1593 6.25928 22.1465 7.79329 22.1465 10.833C22.1465 13.8822 20.1593 15.4209 16.1851 15.4492V6.23096ZM16.1851 0.694336H11.498V2.521H10.9883C4.15365 2.521 0.769368 5.29167 0.835449 10.833C0.90153 16.3838 4.28581 19.1592 10.9883 19.1592L11.498 19.1592V21H16.1851V19.1592H16.6807C23.3831 19.1592 26.7674 16.3838 26.8335 10.833C26.8996 5.29167 23.5153 2.521 16.6807 2.521L16.1851 2.521V0.694336ZM40.1072 0.694336C33.2726 0.694336 29.8883 4.04085 29.9544 10.7339C30.0205 17.578 33.4048 21 40.1072 21H45.7996C52.5021 21 55.8864 17.578 55.9524 10.7339C56.0185 4.04085 52.6342 0.694336 45.7996 0.694336H40.1072ZM45.1766 4.4043C49.2358 4.4043 51.2654 6.51416 51.2654 10.7339C51.2654 15.1047 49.2358 17.29 45.1766 17.29H40.7303C36.671 17.29 34.6414 15.1047 34.6414 10.7339C34.6414 6.51416 36.671 4.4043 40.7303 4.4043H45.1766ZM79.9737 12.603V21H84.6466V12.3198L86.7989 10.748L84.6466 9.17627V0.694336L79.9737 0.694336V8.89307L64.525 8.89307V0.694336L59.8521 0.694336V9.17627L57.6998 10.748L59.8521 12.3198V21H64.525V12.603L79.9737 12.603ZM88.6879 17.29V25.4746H93.3607V21L111.287 21V25.4746H115.96V17.29H114.219V0.694336L94.1112 0.694336V14.6846C94.1112 16.4215 93.205 17.29 91.3925 17.29H88.6879ZM96.83 17.29C98.1233 16.5348 98.7794 15.6663 98.7982 14.6846V4.4043L109.546 4.4043V17.29L96.83 17.29ZM128.971 0.694336V21H133.644V4.4043L149.092 4.4043V21H153.765V0.694336L128.971 0.694336ZM167.945 0.694336C161.11 0.694336 157.726 4.04085 157.792 10.7339C157.858 17.578 161.243 21 167.945 21H173.637C180.34 21 183.724 17.578 183.79 10.7339C183.856 4.04085 180.472 0.694336 173.637 0.694336L167.945 0.694336ZM173.014 4.4043C177.074 4.4043 179.103 6.51416 179.103 10.7339C179.103 15.1047 177.074 17.29 173.014 17.29H168.568C164.509 17.29 162.479 15.1047 162.479 10.7339C162.479 6.51416 164.509 4.4043 168.568 4.4043L173.014 4.4043ZM185.368 17.29V25.4746H190.041V21H207.967V25.4746H212.64V17.29H210.899V0.694336L190.791 0.694336V14.6846C190.791 16.4215 189.885 17.29 188.072 17.29L185.368 17.29ZM193.51 17.29C194.803 16.5348 195.459 15.6663 195.478 14.6846V4.4043L206.226 4.4043V17.29H193.51ZM214.968 17.29V25.4746H219.641V21L237.568 21V25.4746H242.241V17.29H240.499V0.694336L220.392 0.694336V14.6846C220.392 16.4215 219.485 17.29 217.673 17.29H214.968ZM223.11 17.29C224.404 16.5348 225.06 15.6663 225.079 14.6846V4.4043L235.826 4.4043V17.29L223.11 17.29ZM249.978 8.89307V4.4043L268.329 4.4043V0.694336L245.305 0.694336V9.17627L243.153 10.748L245.305 12.3198V21L268.329 21V17.29L249.978 17.29V12.603L265.214 12.603L267.749 10.748L265.214 8.89307L249.978 8.89307ZM263.472 21L265.993 19.145L263.472 17.29L249.992 17.29V0.694336L245.305 0.694336V21L263.472 21ZM296.542 7.12305C296.608 2.83724 294.092 0.694336 288.995 0.694336L272.243 0.694336V21L276.944 21V13.7783H288.995C293.96 13.7783 296.476 11.5599 296.542 7.12305ZM276.944 10.0684V4.4043L288.542 4.4043C290.75 4.4043 291.855 5.31055 291.855 7.12305C291.855 9.08659 290.75 10.0684 288.542 10.0684H276.944ZM303.076 0.694336H296.987L304.038 8.89307L295.627 21L301.433 21L307.253 12.6172L309.646 15.4067V21H314.333V15.4067L316.726 12.6172L322.546 21H328.351L319.94 8.89307L326.992 0.694336L320.903 0.694336L314.333 8.32666V0.694336H309.646V8.32666L303.076 0.694336ZM331.727 21H336.414V16.1147L341.483 11.7393L350.15 21H356.125L344.783 8.89307L354.284 0.694336L347.941 0.694336L336.414 10.6348V0.694336H331.727V21ZM360.081 21L365.547 21L380.189 6.55664V21H384.876V0.694336L379.41 0.694336L364.768 15.1377V0.694336H360.081V21ZM409.101 0.694336L398.169 21H403.012L404.499 18.2671L418.971 18.2671L420.458 21H425.3L414.369 0.694336L409.101 0.694336ZM406.411 14.7554L411.735 4.9707L417.059 14.7554L406.411 14.7554ZM450.398 0.694336L444.96 0.694336L436.832 10.2808L428.704 0.694336L423.267 0.694336L434.085 13.5234L427.742 21L433.278 21L450.398 0.694336ZM446.056 17.29V25.4746H450.729V21L468.656 21V25.4746H473.329V17.29H471.587V0.694336L451.48 0.694336V14.6846C451.48 16.4215 450.573 17.29 448.761 17.29H446.056ZM454.198 17.29C455.492 16.5348 456.148 15.6663 456.167 14.6846V4.4043L466.914 4.4043V17.29H454.198ZM476.393 21H481.859L496.5 6.55664V21L501.187 21V0.694336H495.722L481.08 15.1377V0.694336L476.393 0.694336V21ZM515.112 0.694336C508.278 0.694336 504.894 4.04085 504.96 10.7339C505.026 17.578 508.41 21 515.112 21L520.805 21C527.507 21 530.892 17.578 530.958 10.7339C531.024 4.04085 527.64 0.694336 520.805 0.694336H515.112ZM520.182 4.4043C524.241 4.4043 526.271 6.51416 526.271 10.7339C526.271 15.1047 524.241 17.29 520.182 17.29L515.736 17.29C511.676 17.29 509.647 15.1047 509.647 10.7339C509.647 6.51416 511.676 4.4043 515.736 4.4043H520.182ZM551.609 21C556.574 21 559.09 18.9798 559.156 14.9395C559.185 13.127 558.401 11.7393 556.806 10.7764C558.344 9.77572 559.128 8.36442 559.156 6.54248C559.222 2.64372 556.707 0.694336 551.609 0.694336L534.857 0.694336V21L551.609 21ZM551.156 4.4043C553.365 4.4043 554.469 5.11702 554.469 6.54248C554.469 8.17562 553.365 8.99219 551.156 8.99219L539.53 8.99219V4.4043L551.156 4.4043ZM551.156 12.7021C553.365 12.7021 554.469 13.4149 554.469 14.8403C554.469 16.4735 553.365 17.29 551.156 17.29L539.53 17.29V12.7021L551.156 12.7021ZM563.212 21L568.678 21L583.319 6.55664V21L588.006 21V0.694336H582.54L567.899 15.1377V0.694336H563.212V21ZM607.496 12.7021C609.705 12.7021 610.81 13.4149 610.81 14.8403C610.81 16.4735 609.705 17.29 607.496 17.29H591.778V21L607.949 21C612.915 21 615.431 18.9798 615.497 14.9395C615.525 13.127 614.741 11.7393 613.146 10.7764C614.685 9.77572 615.468 8.36442 615.497 6.54248C615.563 2.64372 613.047 0.694336 607.949 0.694336L591.778 0.694336V4.4043L607.496 4.4043C609.705 4.4043 610.81 5.11702 610.81 6.54248C610.81 8.17562 609.705 8.99219 607.496 8.99219H594.908L592.359 10.8472L594.908 12.7021H607.496ZM643.497 0.694336H638.059L629.932 10.2808L621.804 0.694336H616.366L627.184 13.5234L620.841 21H626.377L643.497 0.694336ZM647.552 0.694336L636.621 21H641.464L642.95 18.2671L657.422 18.2671L658.909 21H663.752L652.82 0.694336H647.552ZM644.862 14.7554L650.186 4.9707L655.51 14.7554L644.862 14.7554ZM671.942 0.694336V14.6846C671.942 16.4215 671.036 17.29 669.223 17.29H668.473L665.952 19.145L668.473 21H669.846C674.302 21 676.563 18.8949 676.629 14.6846V4.4043L687.376 4.4043V21H692.049V0.694336L671.942 0.694336ZM701.556 11.626H713.154C715.363 11.626 716.467 12.6077 716.467 14.5713C716.467 16.3838 715.363 17.29 713.154 17.29H701.556V11.626ZM701.556 0.694336L696.855 0.694336V21H713.607C718.704 21 721.22 18.8571 721.154 14.5713C721.088 10.1344 718.572 7.91602 713.607 7.91602H701.556V0.694336ZM745.388 12.603V21H750.061V12.3198L752.213 10.748L750.061 9.17627V0.694336L745.388 0.694336V8.89307L729.939 8.89307V0.694336H725.266V9.17627L723.114 10.748L725.266 12.3198V21H729.939V12.603L745.388 12.603ZM764.241 0.694336C757.406 0.694336 754.022 4.04085 754.088 10.7339C754.154 17.578 757.538 21 764.241 21H769.933C776.635 21 780.02 17.578 780.086 10.7339C780.152 4.04085 776.768 0.694336 769.933 0.694336L764.241 0.694336ZM769.31 4.4043C773.369 4.4043 775.399 6.51416 775.399 10.7339C775.399 15.1047 773.369 17.29 769.31 17.29H764.864C760.804 17.29 758.775 15.1047 758.775 10.7339C758.775 6.51416 760.804 4.4043 764.864 4.4043L769.31 4.4043ZM788.658 21V4.4043L804.489 4.4043L807.01 2.54932L804.489 0.694336L783.986 0.694336V21L788.658 21ZM818.061 0.694336C811.226 0.694336 807.842 4.04085 807.908 10.7339C807.974 17.578 811.358 21 818.061 21H823.753C830.455 21 833.84 17.578 833.906 10.7339C833.972 4.04085 830.588 0.694336 823.753 0.694336L818.061 0.694336ZM823.13 4.4043C827.189 4.4043 829.219 6.51416 829.219 10.7339C829.219 15.1047 827.189 17.29 823.13 17.29H818.684C814.624 17.29 812.595 15.1047 812.595 10.7339C812.595 6.51416 814.624 4.4043 818.684 4.4043L823.13 4.4043ZM1.61426 65H7.08008L21.7217 50.5566V65H26.4087V44.6943L20.9429 44.6943L6.30127 59.1377L6.30127 44.6943H1.61426L1.61426 65ZM39.9996 48.4043H49.9542L49.9542 65H54.443L54.443 48.4043H64.3976V44.6943H39.9996V48.4043ZM72.9701 52.8931V48.4043H91.3217V44.6943H68.2973V53.1763L66.1449 54.748L68.2973 56.3198V65H91.3217V61.29H72.9701V56.603H88.2064L90.7411 54.748L88.2064 52.8931H72.9701ZM86.4647 65L88.9853 63.145L86.4647 61.29H72.9843V44.6943H68.2973V65H86.4647ZM121.163 44.6943H115.3L107.597 52.0435L99.8942 44.6943H94.0319L104.638 54.8755L94.0319 65H99.9792L107.597 57.7075L115.201 65H121.163L110.557 54.8613L121.163 44.6943ZM144.504 56.603V65H149.177V56.3198L151.33 54.748L149.177 53.1763V44.6943H144.504V52.8931H129.056V44.6943H124.383V53.1763L122.23 54.748L124.383 56.3198V65H129.056V56.603L144.504 56.603ZM163.357 44.6943C156.523 44.6943 153.138 48.0409 153.204 54.7339C153.27 61.578 156.655 65 163.357 65H169.05C175.752 65 179.136 61.578 179.202 54.7339C179.269 48.0409 175.884 44.6943 169.05 44.6943H163.357ZM168.427 48.4043C172.486 48.4043 174.515 50.5142 174.515 54.7339C174.515 59.1047 172.486 61.29 168.427 61.29H163.98C159.921 61.29 157.891 59.1047 157.891 54.7339C157.891 50.5142 159.921 48.4043 163.98 48.4043H168.427ZM185.495 44.6943V58.6846C185.495 60.4215 184.589 61.29 182.776 61.29H182.026L179.505 63.145L182.026 65H183.4C187.855 65 190.116 62.8949 190.182 58.6846V48.4043L200.93 48.4043V65H205.603V44.6943L185.495 44.6943ZM219.783 44.6943C212.948 44.6943 209.564 48.0409 209.63 54.7339C209.696 61.578 213.08 65 219.783 65L225.475 65C232.177 65 235.562 61.578 235.628 54.7339C235.694 48.0409 232.31 44.6943 225.475 44.6943H219.783ZM224.852 48.4043C228.911 48.4043 230.941 50.5142 230.941 54.7339C230.941 59.1047 228.911 61.29 224.852 61.29L220.406 61.29C216.346 61.29 214.317 59.1047 214.317 54.7339C214.317 50.5142 216.346 48.4043 220.406 48.4043H224.852ZM244.2 65V48.4043H260.031L262.552 46.5493L260.031 44.6943L239.528 44.6943V65H244.2ZM266.466 65H271.932L286.573 50.5566V65H291.26V44.6943L285.794 44.6943L271.153 59.1377V44.6943H266.466V65ZM315.905 57.7783V65H320.606V44.6943H315.905V54.0684L303.911 54.0684C301.702 54.0684 300.597 53.0866 300.597 51.123V44.6943H295.811L295.91 51.123C295.977 55.5599 298.492 57.7783 303.458 57.7783L315.905 57.7783ZM330.085 52.8931V48.4043L348.436 48.4043V44.6943L325.412 44.6943V53.1763L323.259 54.748L325.412 56.3198V65H348.436V61.29H330.085V56.603H345.321L347.856 54.748L345.321 52.8931L330.085 52.8931ZM343.579 65L346.1 63.145L343.579 61.29H330.099V44.6943H325.412V65H343.579ZM362.347 61.29C358.297 61.29 356.272 59.1047 356.272 54.7339C356.272 50.5142 358.297 48.4043 362.347 48.4043H373.35L375.87 46.5493L373.35 44.6943H361.724C354.889 44.6943 351.505 48.0409 351.571 54.7339C351.637 61.578 355.022 65 361.724 65H373.35L375.87 63.145L373.35 61.29H362.347ZM379.288 65H383.975V60.1147L389.045 55.7393L397.711 65H403.686L392.344 52.8931L401.845 44.6943H395.502L383.975 54.6348V44.6943H379.288V65ZM412.854 44.6943C406.019 44.6943 402.635 48.0409 402.701 54.7339C402.767 61.578 406.151 65 412.854 65H418.546C425.248 65 428.633 61.578 428.699 54.7339C428.765 48.0409 425.381 44.6943 418.546 44.6943H412.854ZM417.923 48.4043C421.982 48.4043 424.012 50.5142 424.012 54.7339C424.012 59.1047 421.982 61.29 417.923 61.29H413.477C409.417 61.29 407.388 59.1047 407.388 54.7339C407.388 50.5142 409.417 48.4043 413.477 48.4043H417.923ZM437.271 65V48.4043H453.102L455.623 46.5493L453.102 44.6943H432.598V65H437.271ZM466.673 44.6943C459.839 44.6943 456.455 48.0409 456.521 54.7339C456.587 61.578 459.971 65 466.673 65H472.366C479.068 65 482.453 61.578 482.519 54.7339C482.585 48.0409 479.2 44.6943 472.366 44.6943H466.673ZM471.743 48.4043C475.802 48.4043 477.832 50.5142 477.832 54.7339C477.832 59.1047 475.802 61.29 471.743 61.29H467.296C463.237 61.29 461.208 59.1047 461.208 54.7339C461.208 50.5142 463.237 48.4043 467.296 48.4043H471.743ZM496.364 65H501.83L516.472 50.5566V65H521.159V44.6943H515.693L501.051 59.1377V44.6943H496.364V65ZM535.707 61.29C531.657 61.29 529.632 59.1047 529.632 54.7339C529.632 50.5142 531.657 48.4043 535.707 48.4043H546.709L549.23 46.5493L546.709 44.6943H535.084C528.249 44.6943 524.865 48.0409 524.931 54.7339C524.997 61.578 528.382 65 535.084 65H546.709L549.23 63.145L546.709 61.29H535.707ZM552.648 65H557.335V60.1147L562.405 55.7393L571.071 65L577.046 65L565.704 52.8931L575.205 44.6943H568.862L557.335 54.6348V44.6943H552.648V65ZM603.588 44.6943H598.151L590.023 54.2808L581.895 44.6943H576.457L587.276 57.5234L580.932 65H586.468L603.588 44.6943ZM613.577 61.29C609.527 61.29 607.502 59.1047 607.502 54.7339C607.502 50.5142 609.527 48.4043 613.577 48.4043H624.579L627.099 46.5493L624.579 44.6943H612.953C606.119 44.6943 602.735 48.0409 602.801 54.7339C602.867 61.578 606.251 65 612.953 65H624.579L627.099 63.145L624.579 61.29H613.577ZM638.391 61.29C634.341 61.29 632.316 59.1047 632.316 54.7339C632.316 50.5142 634.341 48.4043 638.391 48.4043L649.393 48.4043L651.914 46.5493L649.393 44.6943L637.768 44.6943C630.933 44.6943 627.549 48.0409 627.615 54.7339C627.681 61.578 631.065 65 637.768 65H649.393L651.914 63.145L649.393 61.29H638.391ZM654.426 48.4043H664.38V65H668.869V48.4043H678.824V44.6943H654.426V48.4043ZM699.475 65C704.44 65 706.956 62.9798 707.022 58.9395C707.051 57.127 706.267 55.7393 704.672 54.7764C706.21 53.7757 706.994 52.3644 707.022 50.5425C707.088 46.6437 704.573 44.6943 699.475 44.6943L682.723 44.6943V65H699.475ZM699.022 48.4043C701.231 48.4043 702.335 49.117 702.335 50.5425C702.335 52.1756 701.231 52.9922 699.022 52.9922H687.396V48.4043H699.022ZM699.022 56.7021C701.231 56.7021 702.335 57.4149 702.335 58.8403C702.335 60.4735 701.231 61.29 699.022 61.29H687.396V56.7021H699.022ZM720.013 44.6943L709.081 65H713.924L715.411 62.2671H729.882L731.369 65H736.212L725.28 44.6943H720.013ZM717.322 58.7554L722.647 48.9707L727.971 58.7554H717.322ZM12.0645 90.9316H7.37744L1.48682 98.748L7.37744 106.564H12.0645L6.17383 98.748L12.0645 90.9316ZM21.3677 90.9316H16.6807L10.79 98.748L16.6807 106.564H21.3677L15.4771 98.748L21.3677 90.9316ZM25.8904 88.6943V109H30.5633V92.4043L46.012 92.4043L46.012 109H50.6849L50.6849 88.6943L25.8904 88.6943ZM79.7896 95.123C79.8557 90.8372 77.3399 88.6943 72.2423 88.6943H55.4908L55.4908 109H60.192V101.778H72.2423C77.2078 101.778 79.7236 99.5599 79.7896 95.123ZM60.192 98.0684V92.4043H71.7892C73.9981 92.4043 75.1026 93.3105 75.1026 95.123C75.1026 97.0866 73.9981 98.0684 71.7892 98.0684H60.192ZM93.2758 88.6943C86.4411 88.6943 83.0569 92.0409 83.1229 98.7339C83.189 105.578 86.5733 109 93.2758 109H98.9682C105.671 109 109.055 105.578 109.121 98.7339C109.187 92.0409 105.803 88.6943 98.9682 88.6943H93.2758ZM98.3451 92.4043C102.404 92.4043 104.434 94.5142 104.434 98.7339C104.434 103.105 102.404 105.29 98.3451 105.29H93.8988C89.8396 105.29 87.81 103.105 87.81 98.7339C87.81 94.5142 89.8396 92.4043 93.8988 92.4043H98.3451ZM129.843 109L136.881 96.0859V109H141.568V88.6943H136.102L127.294 104.455L118.487 88.6943H113.021V109H117.708V96.0718L124.759 109H129.843ZM150.947 96.8931V92.4043H169.299V88.6943H146.274V97.1763L144.122 98.748L146.274 100.32V109H169.299V105.29H150.947V100.603H166.184L168.718 98.748L166.184 96.8931H150.947ZM164.442 109L166.962 107.145L164.442 105.29H150.961V88.6943H146.274V109H164.442ZM172.306 92.4043H182.261V109H186.75V92.4043H196.704V88.6943H172.306V92.4043ZM205.277 96.8931V92.4043L223.629 92.4043V88.6943L200.604 88.6943V97.1763L198.452 98.748L200.604 100.32V109L223.629 109V105.29L205.277 105.29V100.603H220.513L223.048 98.748L220.513 96.8931H205.277ZM218.772 109L221.292 107.145L218.772 105.29H205.291V88.6943H200.604V109H218.772ZM227.542 109H233.008L247.65 94.5566V109H252.337V88.6943H246.871L232.229 103.138V88.6943H227.542V109ZM237.129 82.7754H232.923C232.952 86.2777 235.293 88.0288 239.947 88.0288C244.601 88.0288 246.942 86.2777 246.97 82.7754H242.75C242.75 84.0498 241.816 84.687 239.947 84.687C238.068 84.687 237.129 84.0498 237.129 82.7754ZM262.651 98.748L256.76 106.564H261.447L267.338 98.748L261.447 90.9316H256.76L262.651 98.748ZM271.954 98.748L266.064 106.564H270.751L276.641 98.748L270.751 90.9316H266.064L271.954 98.748Z" fill="white" fill-opacity="0.9"/>
</svg>
