<svg width="72" height="16" viewBox="0 0 72 16" fill="none" xmlns="http://www.w3.org/2000/svg">
<path d="M11.8369 3.41016C14.0283 3.41016 15.124 3.97233 15.124 5.09668C15.124 6.29264 14.0283 6.89062 11.8369 6.89062H6.72363C2.44108 6.89062 0.27474 8.42676 0.224609 11.499L0.224609 16L16.7461 16L18.6582 14.5928L16.7461 13.1855L3.90918 13.1855V11.499C3.90918 10.3031 5.00488 9.70508 7.19629 9.70508L12.3096 9.70508C16.5921 9.70508 18.7585 8.16895 18.8086 5.09668C18.8587 2.09603 16.6924 0.595703 12.3096 0.595703L2.28711 0.595703L0.375 2.00293L2.28711 3.41016L11.8369 3.41016ZM28.8461 0.595703C23.6612 0.595703 21.0938 3.13444 21.1439 8.21191C21.1941 13.404 23.7615 16 28.8461 16L33.1645 16C38.2491 16 40.8165 13.404 40.8666 8.21191C40.9167 3.13444 38.3493 0.595703 33.1645 0.595703H28.8461ZM32.6918 3.41016C35.7712 3.41016 37.3109 5.01074 37.3109 8.21191C37.3109 11.5277 35.7712 13.1855 32.6918 13.1855L29.3188 13.1855C26.2393 13.1855 24.6996 11.5277 24.6996 8.21191C24.6996 5.01074 26.2393 3.41016 29.3188 3.41016H32.6918ZM49.8299 0.595703L44.9207 0.595703L43.0086 2.00293L44.9207 3.41016H46.2742L46.2742 16H49.8299L49.8299 0.595703ZM64.2072 16C69.3921 16 71.9595 13.4613 71.9094 8.38379C71.8592 3.19173 69.2919 0.595703 64.2072 0.595703L58.6105 0.595703C54.8436 0.595703 52.9351 2.27865 52.885 5.64453C52.8348 8.89583 54.7434 10.5215 58.6105 10.5215H68.0422C67.4621 12.2975 66.0262 13.1855 63.7346 13.1855H55.3879L53.4758 14.5928L55.3879 16H64.2072ZM59.0832 7.70703C57.4074 7.70703 56.5695 7.01953 56.5695 5.64453C56.5695 4.15495 57.4074 3.41016 59.0832 3.41016L63.7346 3.41016C66.592 3.41016 68.121 4.84245 68.3215 7.70703L59.0832 7.70703Z" fill="white" fill-opacity="0.9"/>
</svg>
