<svg width="21" height="17" viewBox="0 0 21 17" fill="none" xmlns="http://www.w3.org/2000/svg">
<path opacity="0.8" fill-rule="evenodd" clip-rule="evenodd" d="M20.3907 1.20132C20.5479 -0.585758 18.6608 0.150068 18.6608 0.150068C17.2674 0.726898 15.8304 1.31307 14.3778 1.90557C9.87393 3.74271 5.22086 5.64072 1.2571 7.50866C-0.892157 8.29712 0.36595 9.08554 0.36595 9.08554L3.77332 10.1368C5.34591 10.6098 6.18467 10.0842 6.18467 10.0842L13.5236 5.09086C16.1446 3.30378 15.5156 4.77552 14.8865 5.40624L9.38229 10.6623C8.54356 11.3982 8.96295 12.029 9.3299 12.3443C10.3699 13.2619 12.9281 14.9407 14.045 15.6737C14.3356 15.8644 14.5287 15.9911 14.572 16.0236C14.8341 16.2339 16.2494 17.18 17.193 16.9697C18.1366 16.7595 18.2414 15.5506 18.2414 15.5506L19.4995 7.29842C19.6882 5.86581 19.9047 4.48882 20.0775 3.38901C20.2408 2.35021 20.3652 1.55877 20.3907 1.20132Z" fill="white" fill-opacity="0.9"/>
</svg>
